<svg xmlns="http://www.w3.org/2000/svg" xmlns:xlink="http://www.w3.org/1999/xlink" width="1080" zoomAndPan="magnify" viewBox="0 0 810 809.999993" height="1080" preserveAspectRatio="xMidYMid meet" version="1.0"><defs><clipPath id="995af9a6c8"><path d="M 146 378.417969 L 664 378.417969 L 664 431.667969 L 146 431.667969 Z M 146 378.417969 " clip-rule="nonzero"/></clipPath></defs><g clip-path="url(#995af9a6c8)"><path fill="#ffffff" d="M 155.089844 424.785156 C 156.894531 424.785156 158.558594 424.828125 160.21875 424.777344 C 164.78125 424.636719 169.351562 424.554688 173.90625 424.253906 C 177.460938 424.023438 181 423.484375 184.546875 423.113281 C 187.679688 422.78125 190.820312 422.527344 193.953125 422.167969 C 196.730469 421.847656 199.492188 421.40625 202.265625 421.054688 C 205.042969 420.703125 207.828125 420.414062 210.605469 420.066406 C 213.035156 419.765625 215.460938 419.429688 217.886719 419.097656 C 220.515625 418.730469 223.144531 418.347656 225.773438 417.976562 C 228.265625 417.625 230.757812 417.277344 233.25 416.925781 C 235.742188 416.570312 238.234375 416.210938 240.726562 415.847656 C 243.214844 415.484375 245.703125 415.101562 248.191406 414.742188 C 250.542969 414.398438 252.902344 414.082031 255.253906 413.738281 C 257.671875 413.382812 260.089844 413.003906 262.507812 412.644531 C 264.859375 412.296875 267.210938 411.960938 269.5625 411.613281 C 272.8125 411.128906 276.0625 410.636719 279.3125 410.152344 C 281.730469 409.789062 284.152344 409.429688 286.570312 409.070312 C 289.753906 408.597656 292.933594 408.128906 296.117188 407.65625 C 298.605469 407.289062 301.09375 406.910156 303.582031 406.542969 C 305.863281 406.207031 308.148438 405.882812 310.429688 405.542969 C 313.886719 405.03125 317.34375 404.515625 320.800781 404 C 323.980469 403.523438 327.164062 403.050781 330.34375 402.578125 C 332.832031 402.207031 335.320312 401.828125 337.808594 401.472656 C 340.164062 401.140625 342.527344 400.851562 344.878906 400.519531 C 347.578125 400.136719 350.273438 399.738281 352.96875 399.335938 C 355.386719 398.972656 357.800781 398.578125 360.21875 398.222656 C 362.574219 397.878906 364.929688 397.566406 367.285156 397.234375 C 371.019531 396.707031 374.753906 396.167969 378.492188 395.648438 C 380.917969 395.3125 383.351562 395.023438 385.777344 394.6875 C 388.40625 394.324219 391.03125 393.917969 393.660156 393.554688 C 395.117188 393.351562 396.582031 393.210938 398.039062 393.015625 C 400.808594 392.644531 403.574219 392.230469 406.34375 391.875 C 409.050781 391.527344 411.765625 391.222656 414.476562 390.902344 C 417.253906 390.570312 420.035156 390.25 422.8125 389.90625 C 424.617188 389.683594 426.414062 389.425781 428.21875 389.195312 C 431.199219 388.816406 434.183594 388.441406 437.164062 388.074219 C 438.695312 387.882812 440.222656 387.703125 441.753906 387.542969 C 444.75 387.234375 447.75 386.972656 450.738281 386.632812 C 453.792969 386.28125 456.839844 385.847656 459.894531 385.476562 C 461.492188 385.285156 463.101562 385.167969 464.703125 385.003906 C 468.671875 384.589844 472.632812 384.148438 476.605469 383.765625 C 478.835938 383.550781 481.078125 383.457031 483.3125 383.25 C 485.46875 383.050781 487.617188 382.753906 489.773438 382.535156 C 491.585938 382.351562 493.402344 382.203125 495.21875 382.070312 C 497.734375 381.890625 500.257812 381.765625 502.773438 381.5625 C 505.355469 381.355469 507.929688 381.078125 510.507812 380.835938 C 510.714844 380.816406 510.925781 380.796875 511.136719 380.789062 C 514.574219 380.625 518.011719 380.503906 521.445312 380.289062 C 524.449219 380.101562 527.445312 379.808594 530.445312 379.5625 C 530.65625 379.546875 530.867188 379.535156 531.078125 379.527344 C 536.132812 379.363281 541.195312 379.292969 546.246094 379.015625 C 556.300781 378.464844 566.359375 378.636719 576.417969 378.621094 C 578.953125 378.617188 581.488281 378.613281 584.023438 378.6875 C 587.53125 378.789062 591.042969 378.917969 594.546875 379.121094 C 598.183594 379.335938 601.820312 379.585938 605.441406 379.945312 C 608.5 380.246094 611.535156 380.800781 614.59375 381.117188 C 621.566406 381.839844 628.417969 383.210938 635.171875 385.027344 C 642.027344 386.867188 648.710938 389.242188 654.625 393.328125 C 657.058594 395.011719 659.292969 396.941406 661 399.40625 C 663.917969 403.628906 664.703125 408.1875 662.855469 413 C 661.558594 416.378906 659.546875 419.292969 656.722656 421.691406 C 654.242188 423.800781 651.679688 425.765625 648.777344 427.195312 C 644.421875 429.339844 639.851562 430.738281 634.96875 431.304688 C 632.292969 431.617188 629.820312 431.179688 627.296875 430.714844 C 626.371094 430.546875 625.488281 429.976562 624.664062 429.460938 C 624.015625 429.054688 623.792969 428.339844 624.132812 427.601562 C 624.488281 426.824219 625.195312 426.765625 625.933594 426.863281 C 626.070312 426.882812 626.210938 426.917969 626.335938 426.976562 C 630.390625 428.953125 634.535156 428.257812 638.6875 427.417969 C 644.167969 426.308594 649.011719 423.816406 653.351562 420.386719 C 656.132812 418.1875 658.414062 415.515625 659.726562 412.132812 C 661.519531 407.515625 660.398438 403.484375 657.246094 399.878906 C 653.964844 396.128906 649.683594 393.867188 645.21875 391.898438 C 639.945312 389.566406 634.382812 388.117188 628.78125 386.902344 C 624.894531 386.058594 620.914062 385.664062 616.984375 385.03125 C 613.109375 384.410156 609.214844 384.039062 605.304688 383.714844 C 601.113281 383.371094 596.917969 383.113281 592.71875 382.871094 C 579.214844 382.101562 565.703125 382.625 552.195312 382.585938 C 548.828125 382.578125 545.460938 382.835938 542.09375 382.996094 C 539.785156 383.109375 537.472656 383.242188 535.167969 383.40625 C 532.023438 383.632812 528.882812 383.898438 525.742188 384.144531 C 525.53125 384.164062 525.320312 384.167969 525.109375 384.179688 C 521.886719 384.34375 518.65625 384.460938 515.4375 384.691406 C 513.277344 384.84375 511.128906 385.164062 508.976562 385.402344 C 508.625 385.441406 508.273438 385.441406 507.921875 385.472656 C 504.785156 385.742188 501.648438 386.027344 498.507812 386.28125 C 496.199219 386.46875 493.886719 386.578125 491.585938 386.792969 C 489.707031 386.96875 487.84375 387.261719 485.96875 387.46875 C 484.085938 387.675781 482.203125 387.828125 480.320312 388.023438 C 476.425781 388.429688 472.53125 388.855469 468.632812 389.257812 C 465.570312 389.574219 462.5 389.828125 459.441406 390.183594 C 456.527344 390.519531 453.625 390.957031 450.710938 391.328125 C 449.113281 391.527344 447.507812 391.652344 445.90625 391.847656 C 442.925781 392.214844 439.945312 392.613281 436.964844 392.988281 C 434.328125 393.320312 431.6875 393.632812 429.050781 393.96875 C 426.207031 394.332031 423.367188 394.710938 420.527344 395.085938 C 418.03125 395.414062 415.535156 395.730469 413.039062 396.078125 C 410.410156 396.445312 407.789062 396.859375 405.160156 397.222656 C 402.734375 397.5625 400.304688 397.863281 397.875 398.179688 C 395.449219 398.5 393.019531 398.808594 390.59375 399.136719 C 387.757812 399.523438 384.917969 399.90625 382.082031 400.328125 C 378.835938 400.8125 375.597656 401.347656 372.351562 401.835938 C 370 402.191406 367.644531 402.511719 365.292969 402.847656 C 362.9375 403.183594 360.582031 403.511719 358.230469 403.859375 C 355.742188 404.222656 353.253906 404.59375 350.769531 404.980469 C 347.527344 405.484375 344.285156 406.023438 341.039062 406.515625 C 337.792969 407.011719 334.535156 407.445312 331.289062 407.945312 C 327.214844 408.578125 323.152344 409.273438 319.078125 409.902344 C 315.832031 410.402344 312.574219 410.839844 309.324219 411.328125 C 306.417969 411.757812 303.515625 412.203125 300.617188 412.667969 C 297.441406 413.179688 294.277344 413.738281 291.105469 414.25 C 286.828125 414.941406 282.550781 415.636719 278.265625 416.285156 C 274.050781 416.921875 269.816406 417.460938 265.601562 418.109375 C 260.699219 418.867188 255.8125 419.730469 250.914062 420.492188 C 247.59375 421.007812 244.261719 421.410156 240.9375 421.902344 C 237.484375 422.410156 234.035156 422.984375 230.582031 423.488281 C 227.257812 423.972656 223.925781 424.386719 220.601562 424.863281 C 217.007812 425.378906 213.417969 425.949219 209.820312 426.457031 C 207.394531 426.796875 204.960938 427.0625 202.53125 427.378906 C 199.621094 427.757812 196.714844 428.164062 193.800781 428.542969 C 192.34375 428.730469 190.882812 428.882812 189.421875 429.039062 C 185.523438 429.460938 181.628906 429.921875 177.726562 430.277344 C 175.003906 430.523438 172.246094 430.464844 169.542969 430.824219 C 165.050781 431.417969 160.550781 431.191406 156.058594 431.144531 C 154.054688 431.125 152.027344 430.695312 150.0625 430.238281 C 149.152344 430.023438 148.242188 429.429688 147.542969 428.777344 C 145.6875 427.035156 145.703125 424.445312 147.480469 422.335938 C 148.675781 420.921875 150.152344 419.851562 151.765625 418.957031 C 156.007812 416.601562 160.445312 414.679688 164.941406 412.875 C 173.339844 409.503906 181.945312 406.714844 190.523438 403.867188 C 203.484375 399.5625 216.566406 395.664062 229.75 392.085938 C 238.804688 389.625 247.945312 387.585938 257.140625 385.765625 C 263.246094 384.558594 269.335938 383.277344 275.449219 382.125 C 279.777344 381.308594 284.125 380.605469 288.480469 379.949219 C 290.476562 379.648438 292.398438 379.816406 293.851562 381.59375 C 295.582031 383.710938 295.109375 386.910156 292.824219 388.425781 C 291.59375 389.242188 290.175781 389.371094 288.820312 389.613281 C 283.449219 390.570312 278.042969 391.328125 272.683594 392.324219 C 266.769531 393.417969 260.882812 394.644531 255 395.894531 C 245.492188 397.910156 235.976562 399.898438 226.503906 402.078125 C 218.121094 404.011719 209.800781 406.207031 201.445312 408.253906 C 192.734375 410.390625 184.148438 412.929688 175.691406 415.910156 C 169.339844 418.152344 163 420.421875 156.964844 423.445312 C 156.464844 423.695312 155.96875 423.960938 155.480469 424.238281 C 155.371094 424.300781 155.320312 424.457031 155.089844 424.785156 Z M 155.089844 424.785156 " fill-opacity="1" fill-rule="nonzero"/></g><path fill="#040606" d="M 154.855469 543.539062 C 176.820312 496.273438 222.347656 461.984375 273.273438 452.074219 C 285.949219 449.636719 298.882812 448.808594 311.761719 449.589844 C 327.679688 450.554688 343.367188 453.59375 359.132812 455.855469 C 388.5625 460.078125 420.1875 461.320312 445.398438 442.902344 C 467.03125 427.09375 480.226562 401.332031 478.882812 374.398438 C 477.589844 348.167969 462.675781 317.957031 436.53125 308.742188 C 423.785156 304.25 409.503906 307.613281 401.308594 318.722656 C 393.960938 328.652344 395.640625 341.992188 405.121094 349.878906 C 414.421875 357.59375 426.960938 359.574219 438.636719 360.410156 C 451.945312 361.355469 465.339844 360.914062 478.570312 359.203125 C 531.203125 352.453125 581.347656 326.277344 616.066406 285.949219 C 620.367188 280.953125 624.414062 275.722656 628.234375 270.328125 C 631.148438 266.226562 624.386719 262.308594 621.488281 266.386719 C 592.402344 307.382812 547.644531 336.1875 498.90625 347.636719 C 486.738281 350.515625 474.34375 352.273438 461.847656 352.867188 C 450.023438 353.398438 437.457031 353.542969 425.855469 350.886719 C 416.625 348.769531 404.269531 343.585938 404.359375 332.289062 C 404.457031 319.640625 419.144531 312.773438 430.0625 315.058594 C 442.933594 317.722656 453.1875 328.050781 459.914062 338.832031 C 466.742188 349.777344 470.65625 362.527344 471.121094 375.40625 C 472.03125 400.476562 459.214844 424.609375 438.292969 438.347656 C 413.515625 454.613281 383.175781 451.6875 355.3125 447.449219 C 340.460938 445.160156 325.613281 442.515625 310.59375 441.703125 C 298.359375 441.039062 286.082031 441.894531 274.019531 444.035156 C 226.207031 452.445312 182.160156 482.078125 156.71875 523.511719 C 153.53125 528.695312 150.671875 534.070312 148.109375 539.597656 C 146.003906 544.117188 152.734375 548.105469 154.855469 543.539062 " fill-opacity="1" fill-rule="nonzero"/></svg>